<?xml version="1.0" encoding="UTF-8"?>
<svg id="_レイヤー_2" data-name="レイヤー 2" xmlns="http://www.w3.org/2000/svg" viewBox="0 0 45.21 19.57">
  <g id="anytype_logo">
    <path d="M31.56,.69c-.59,.77-.44,1.86,.33,2.45l6.41,4.9H1.75c-.97,0-1.75,.78-1.75,1.75s.78,1.75,1.75,1.75H38.3l-6.41,4.9c-.77,.59-.91,1.68-.33,2.45s1.68,.91,2.45,.33l10.51-8.04s.05-.06,.08-.09c.06-.05,.11-.11,.17-.17,.03-.03,.06-.04,.09-.07,.02-.03,.03-.07,.05-.1,.04-.06,.08-.12,.11-.19,.03-.07,.06-.14,.08-.21,.03-.07,.05-.15,.06-.22,.01-.07,.02-.14,.03-.22,0-.04,.02-.07,.02-.11s-.02-.07-.02-.11c0-.07-.01-.15-.03-.22-.01-.08-.04-.15-.06-.22-.03-.07-.05-.14-.08-.21-.03-.07-.07-.13-.11-.19-.02-.03-.03-.07-.05-.11-.02-.03-.06-.05-.09-.07-.05-.06-.11-.11-.17-.17-.03-.03-.04-.06-.07-.09L34.01,.36c-.77-.59-1.86-.44-2.45,.33Z"/>
  </g>
</svg>