<?xml version="1.0" encoding="UTF-8"?>
<svg id="anytype_logo" xmlns="http://www.w3.org/2000/svg" viewBox="0 0 19.57 45.21">
  <path d="M.69,13.65c.77,.59,1.86,.44,2.45-.33l4.9-6.41V43.46c0,.97,.78,1.75,1.75,1.75s1.75-.78,1.75-1.75V6.91l4.9,6.41c.59,.77,1.68,.91,2.45,.33s.91-1.68,.33-2.45L11.17,.69s-.06-.05-.09-.08c-.05-.06-.11-.11-.17-.17-.03-.03-.04-.06-.07-.09-.03-.02-.07-.03-.1-.05-.06-.04-.12-.08-.19-.11-.07-.03-.14-.06-.21-.08-.07-.03-.15-.05-.22-.06-.07-.01-.14-.02-.22-.03-.04,0-.07-.02-.11-.02s-.07,.02-.11,.02c-.07,0-.15,.01-.22,.03-.08,.01-.15,.04-.22,.06-.07,.03-.14,.05-.21,.08-.07,.03-.13,.07-.19,.11-.03,.02-.07,.03-.11,.05-.03,.02-.05,.06-.07,.09-.06,.05-.11,.11-.17,.17-.03,.03-.06,.04-.09,.07L.36,11.2c-.59,.77-.44,1.86,.33,2.45Z"/>
</svg>