<?xml version="1.0" encoding="UTF-8"?>
<svg id="_レイヤー_2" data-name="レイヤー 2" xmlns="http://www.w3.org/2000/svg" viewBox="0 0 32.08 31.91">
  <g id="anytype_logo">
    <g>
      <path d="M21.15,17.72c-.43-.33-1.05-.25-1.38,.18l-2.75,3.6V.98c0-.54-.44-.98-.98-.98s-.98,.44-.98,.98V21.5l-2.75-3.6c-.33-.43-.95-.51-1.38-.18s-.51,.95-.18,1.38l4.51,5.9s.03,.03,.05,.04c.03,.03,.06,.06,.09,.09,.02,.01,.02,.03,.04,.05,.02,.01,.04,.02,.06,.03,.04,.02,.07,.04,.11,.06,.04,.02,.08,.03,.12,.05,.04,.01,.08,.03,.13,.04,.04,0,.08,.01,.12,.01,.02,0,.04,.01,.06,.01s.04-.01,.06-.01c.04,0,.08,0,.12-.01,.04,0,.08-.02,.13-.04,.04-.01,.08-.03,.12-.05,.04-.02,.07-.04,.11-.06,.02-.01,.04-.01,.06-.03,.02-.01,.03-.03,.04-.05,.03-.03,.06-.06,.09-.09,.01-.02,.03-.02,.05-.04l4.51-5.9c.33-.43,.25-1.05-.18-1.38Z"/>
      <path d="M31.1,21.77c-.54,0-.98,.44-.98,.98v7.2H1.96v-7.2c0-.54-.44-.98-.98-.98s-.98,.44-.98,.98v8.18c0,.54,.44,.98,.98,.98H31.1c.54,0,.98-.44,.98-.98v-8.18c0-.54-.44-.98-.98-.98Z"/>
    </g>
  </g>
</svg>