<?xml version="1.0" encoding="utf-8"?>
<!-- Generator: Adobe Illustrator 24.0.2, SVG Export Plug-In . SVG Version: 6.00 Build 0)  -->
<svg version="1.1" id="レイヤー_1" xmlns="http://www.w3.org/2000/svg" xmlns:xlink="http://www.w3.org/1999/xlink" x="0px"
	 y="0px" viewBox="0 0 100 64.35" style="enable-background:new 0 0 100 64.35;" xml:space="preserve">
<style type="text/css">
	.st0{fill:#0B83DE;}
	.st1{fill:#00CCF5;}
	.st2{fill:#0DFA9E;}
	.st3{fill:#0BDEC8;}
</style>
<g>
	<path class="st0" d="M99.82,43.76c-0.67-2.66-2.42-4.41-4.76-5.57c-5.44-2.69-10.85-5.47-16.42-7.87
		c-4.28-1.84-8.59-1.78-12.34,1.61c-1.21,1.09-2.5,2.08-3.73,3.14c-2.83,2.43-5.67,4.85-8.45,7.32c-1.08,0.97-1.64,2.24-1.75,3.73
		c-0.23,3.22,1.39,5.4,3.96,6.96c5.31,3.21,10.67,6.34,16.02,9.49c2.03,1.2,4.23,1.8,6.76,1.78c2.59,0.03,5.12-0.66,7.09-2.66
		c4.06-4.13,8.07-8.31,12.04-12.51C99.66,47.68,100.36,45.9,99.82,43.76z"/>
	<path class="st1" d="M64.5,26.23c-0.43-2.09-1.84-3.34-3.63-4.22c-3.95-1.95-7.89-3.93-11.91-5.73c-3.37-1.5-6.84-1.37-9.97,0.62
		c-4.3,2.73-8.47,5.67-12.66,8.56c-1.58,1.09-2.64,2.55-2.57,4.61c-0.07,2.11,1.01,3.59,2.71,4.63c3.88,2.35,7.77,4.69,11.69,6.96
		c3.87,2.24,8.64,1.86,12.17-0.87c4.07-3.15,8.15-6.27,12.17-9.47C64.11,30.04,64.93,28.36,64.5,26.23z"/>
	<path class="st2" d="M33.5,8.41c-2.91-1.44-5.85-2.84-8.77-4.26c-1.29-0.62-2.63-1.02-4.01-0.87c-2.25-0.14-4.2,0.51-6.06,1.58
		C10.58,7.22,6.39,9.4,2.42,11.92c-3.4,2.16-3.14,6.07,0.31,8.1c2.65,1.57,5.31,3.12,7.95,4.72c3.49,2.11,7.1,2.03,10.49,0.09
		c4.42-2.53,8.69-5.32,12.93-8.14C37.63,14.36,37.28,10.28,33.5,8.41z"/>
	<path class="st3" d="M54.58,16.28c3.38,1.54,6.79,3.03,10.17,4.57c1.66,0.76,3.35,1.28,5.12,1.12c2.59,0.16,4.78-0.64,6.75-2.19
		c1.24-0.98,2.58-1.83,3.84-2.79c2-1.53,4.22-2.8,6.04-4.56c1.73-1.67,1.72-3.93,0.14-5.74C85.91,5.86,85,5.31,83.99,4.92
		c-3.79-1.44-7.56-2.96-11.4-4.27c-3.17-1.08-6.32-0.87-9.24,0.96c-3.05,1.91-6.07,3.86-9.1,5.78c-0.76,0.48-1.5,1-2.08,1.7
		c-0.91,1.12-1.32,2.35-0.87,3.81C51.82,14.62,53.06,15.59,54.58,16.28z"/>
</g>
</svg>
