<?xml version="1.0" encoding="utf-8"?>
<!-- Generator: Adobe Illustrator 24.0.2, SVG Export Plug-In . SVG Version: 6.00 Build 0)  -->
<svg version="1.1" id="レイヤー_1" xmlns="http://www.w3.org/2000/svg" xmlns:xlink="http://www.w3.org/1999/xlink" x="0px"
	 y="0px" viewBox="0 0 300 45.47" style="enable-background:new 0 0 300 45.47;" xml:space="preserve">
<style type="text/css">
	.st0{fill:#00CCF5;}
	.st1{fill:#0B83DE;}
</style>
<g>
	<path class="st0" d="M33.84,33.79H12l-4.25,9.25c-0.75,1.61-2.21,2.26-3.61,2.26c-2.1,0-4.14-1.4-4.14-3.5
		c0-0.48,0.11-1.02,0.38-1.61L17.27,3.6c1.08-2.26,3.34-3.34,5.65-3.34c2.37,0,4.68,1.13,5.7,3.34l16.84,36.53
		c0.27,0.54,0.38,1.08,0.38,1.61c0,2.1-2.04,3.55-4.09,3.55c-1.45,0-2.85-0.7-3.61-2.31L33.84,33.79z M23.46,10.28
		c-0.11-0.32-0.32-0.48-0.54-0.48c-0.21,0-0.38,0.16-0.54,0.48l-7.16,16.3h15.44L23.46,10.28z"/>
	<path class="st0" d="M81.03,37.02c0,0-0.43-6.99-0.48-11.19l-0.32-22.6V3.17c0-2.1,1.94-3.17,3.87-3.17c1.94,0,3.93,1.08,3.93,3.23
		V38.2c0,4.47-3.34,7.26-6.99,7.26c-2.69,0-5.6-1.56-7.37-5.22L63.59,19.69c-1.99-4.04-5-11.41-5-11.41
		c-0.22-0.54-0.54-0.86-0.75-0.81c-0.16-0.05-0.27,0.22-0.27,0.75v0.32c0,0,0.65,9.95,0.7,14.74l0.22,18.89
		c0,2.1-1.94,3.12-3.87,3.12c-1.99,0-3.93-1.02-3.93-3.12l-0.11-34.6V7.53c0-5.11,3.17-7.53,6.51-7.53c2.69,0,5.54,1.56,6.99,4.47
		l10.87,21.79c1.94,3.87,5.11,11.03,5.11,11.03c0.22,0.38,0.38,0.54,0.59,0.54c0.22,0,0.38-0.27,0.38-0.7V37.02z"/>
	<path class="st0" d="M109.7,27.66L93.72,6.03c-0.54-0.75-0.81-1.51-0.81-2.26c0-2.1,2.04-3.77,4.14-3.77
		c1.08,0,2.15,0.48,2.96,1.56l13.61,18.72l13.51-18.72c0.81-1.08,1.88-1.51,2.96-1.51c2.1,0,4.25,1.67,4.25,3.77
		c0,0.7-0.27,1.45-0.81,2.21L117.56,27.6v14.8c0,2.04-1.94,3.07-3.93,3.07c-1.94,0-3.93-1.02-3.93-3.07V27.66z"/>
	<path class="st1" d="M151.72,8.34h-12.64c-2.26,0-3.44-1.88-3.44-3.82c0-1.88,1.18-3.77,3.44-3.77h33.47
		c2.31,0,3.44,1.88,3.44,3.77c0,1.94-1.13,3.82-3.44,3.82h-12.7v33.63c0,2.31-2.04,3.44-4.04,3.44c-2.04,0-4.09-1.13-4.09-3.44V8.34
		z"/>
	<path class="st1" d="M194.06,27.66L178.08,6.03c-0.54-0.75-0.81-1.51-0.81-2.26c0-2.1,2.04-3.77,4.14-3.77
		c1.08,0,2.15,0.48,2.96,1.56l13.61,18.72L211.5,1.56c0.81-1.08,1.88-1.51,2.96-1.51c2.1,0,4.25,1.67,4.25,3.77
		c0,0.7-0.27,1.45-0.81,2.21L201.92,27.6v14.8c0,2.04-1.94,3.07-3.93,3.07c-1.94,0-3.93-1.02-3.93-3.07V27.66z"/>
	<path class="st1" d="M231.51,29.22v12.86c0,2.21-1.94,3.28-3.93,3.28c-1.94,0-3.93-1.08-3.93-3.28V6.73c0-4.04,1.99-6.03,6.03-6.03
		h14.47c11.19,0,16.14,5.97,16.14,13.99c0,8.07-4.63,14.53-16.03,14.53H231.51z M244.21,21.74c5.54,0,8.23-3.07,8.23-6.94
		c0-3.87-2.85-6.62-8.23-6.62h-11.73c-0.59,0-0.97,0.48-0.97,1.02v12.54H244.21z"/>
	<path class="st1" d="M272.77,44.82c-4.04,0-6.4-1.99-6.4-6.03V6.73c0-4.04,2.37-6.03,6.4-6.03h23.3c2.48,0,3.71,1.83,3.71,3.71
		s-1.24,3.77-3.66,3.77h-20.5c-0.81,0-1.45,0.48-1.45,1.35l0.05,8.55h19.64c2.37,0,3.6,1.83,3.6,3.77c0,1.83-1.24,3.71-3.55,3.71
		h-19.69v10.33c0,1.18,0.48,1.45,1.61,1.45h20.5c2.42,0,3.66,1.88,3.66,3.71c0,1.88-1.24,3.77-3.66,3.77H272.77z"/>
</g>
</svg>
